<svg xmlns="http://www.w3.org/2000/svg" id="svg1" width="2048" height="2048" version="1.1">
    <defs id="defs1">
        <linearGradient id="mainGradient" x1="354.85" x2="1693.15" y1="350.69" y2="1688.99"
            gradientUnits="userSpaceOnUse">
            <stop offset="0%" stop-color="#8a5dfa" />
            <stop offset="100%" stop-color="#292163" />
        </linearGradient>
        <linearGradient id="mirroredGradient" x1="1693.15" x2="354.85" y1="350.69" y2="1688.99"
            gradientUnits="userSpaceOnUse">
            <stop offset="0%" stop-color="#8a5dfa" />
            <stop offset="100%" stop-color="#292163" />
        </linearGradient>
        <style>
            #layer1 circle,#layer1
            path{fill:url(#mainGradient)!important;stroke:url(#mainGradient)!important}#layer1-8
            circle,#layer1-8
            path{fill:url(#mirroredGradient)!important;stroke:url(#mirroredGradient)!important}path{stroke-width:20;stroke-dasharray:none;stroke-opacity:1}</style>
    </defs>
    <g id="layer1" transform="matrix(1.53 0 0 1.53 -543.036 -536.669)">
        <circle id="path1" cx="786.082" cy="510.731" r="64.5" />
        <circle id="path1-8" cx="525.871" cy="615.646" r="64.5" />
        <circle id="path1-1" cx="448.608" cy="865.384" r="64.5" />
        <circle id="path1-2" cx="681.591" cy="782.225" r="64.5" />
        <circle id="path1-23" cx="1024" cy="676.335" r="64.5" />
        <circle id="path1-9" cx="1024" cy="972.89" r="64.5" />
        <circle id="path1-4" cx="1024" cy="1252.479" r="64.5" />
        <circle id="path1-4-8" cx="820" cy="1073.051" r="64.5" />
        <circle id="path1-4-8-7" cx="550" cy="1111.949" r="64.5" />
        <circle id="path1-4-8-8" cx="735" cy="1301.949" r="64.5" />
        <circle id="path1-3" cx="1024" cy="1532.068" r="64.5" />
        <path id="path2" d="m525.87 615.646 260.212-104.915" />
        <path id="path3" d="m448.608 865.384 77.263-249.738" />
        <path id="path4" d="m681.591 782.225 104.49-271.494" />
        <path id="path5" d="m525.87 615.646 155.721 166.579" />
        <path id="path6" d="m448.608 865.384 232.983-83.16" />
        <path id="path7" d="M550 1111.95 448.608 865.383" />
        <path id="path8" d="M786.082 510.731 1024 676.335" />
        <path id="path9" d="M681.591 782.225 1024 676.335" />
        <path id="path10" d="m550 1111.95 131.591-329.725" />
        <path id="path11" d="M448.608 865.384 820 1073.05" />
        <path id="path12" d="m550 1111.95 270-38.9" />
        <path id="path13" d="M681.591 782.225 820 1073.05" />
        <path id="path14" d="m550 1111.95 185 190" />
        <path id="path15" d="m820 1073.05 204-396.715" />
        <path id="path16" d="M681.591 782.225 1024 972.89" />
        <path id="path17" d="m820 1073.05 204-100.16" />
        <path id="path18" d="m735 1301.95 85-228.9" />
        <path id="path19" d="m1024 1532.068-289-230.119" />
        <path id="path20" d="M1024 676.335V972.89" />
        <path id="path21" d="M1024 972.89v279.589" />
        <path id="path22" d="m820 1073.05 204 179.429" />
        <path id="path23" d="m735 1301.95 289-49.471" />
        <path id="path24" d="m820 1073.05 204 459.018" />
        <path id="path25" d="M1024 1532.068v-279.59" />
        <g id="layer1-8" transform="matrix(-1 0 0 1 2048 0)">
            <circle id="path1-6" cx="786.082" cy="510.731" r="64.5" />
            <circle id="path1-8-5" cx="525.871" cy="615.646" r="64.5" />
            <circle id="path1-1-0" cx="448.608" cy="865.384" r="64.5" />
            <circle id="path1-2-9" cx="681.591" cy="782.225" r="64.5" />
            <circle id="path1-4-8-1" cx="820" cy="1073.051" r="64.5" />
            <circle id="path1-4-8-7-3" cx="550" cy="1111.949" r="64.5" />
            <circle id="path1-4-8-8-8" cx="735" cy="1301.949" r="64.5" />
            <path id="path2-3" d="m525.87 615.646 260.212-104.915" />
            <path id="path3-4" d="m448.608 865.384 77.263-249.738" />
            <path id="path4-4" d="m681.591 782.225 104.49-271.494" />
            <path id="path5-6" d="m525.87 615.646 155.721 166.579" />
            <path id="path6-0" d="m448.608 865.384 232.983-83.16" />
            <path id="path7-6" d="M550 1111.95 448.608 865.383" />
            <path id="path8-6" d="M786.082 510.731 1024 676.335" />
            <path id="path9-1" d="M681.591 782.225 1024 676.335" />
            <path id="path10-8" d="m550 1111.95 131.591-329.725" />
            <path id="path11-4" d="M448.608 865.384 820 1073.05" />
            <path id="path12-9" d="m550 1111.95 270-38.9" />
            <path id="path13-6" d="M681.591 782.225 820 1073.05" />
            <path id="path14-3" d="m550 1111.95 185 190" />
            <path id="path15-7" d="m820 1073.05 204-396.715" />
            <path id="path16-8" d="M681.591 782.225 1024 972.89" />
            <path id="path17-8" d="m820 1073.05 204-100.16" />
            <path id="path18-2" d="m735 1301.95 85-228.9" />
            <path id="path19-9" d="m1024 1532.068-289-230.119" />
            <path id="path22-5" d="m820 1073.05 204 179.429" />
            <path id="path23-9" d="m735 1301.95 289-49.471" />
            <path id="path24-8" d="m820 1073.05 204 459.018" />
        </g>
    </g>
</svg>